<svg xmlns="http://www.w3.org/2000/svg" width="11.302" height="13.911" viewBox="0 0 11.302 13.911">
  <path id="cadeado" d="M22.957,10.219h-.432V8.551a3.475,3.475,0,1,0-6.948,0V10.2h-.432A1.753,1.753,0,0,0,13.4,11.948v5.219a1.753,1.753,0,0,0,1.745,1.745h7.813A1.753,1.753,0,0,0,24.7,17.167V11.948A1.74,1.74,0,0,0,22.957,10.219Zm-6.516,0V8.551a2.61,2.61,0,1,1,5.219,0V10.2H16.442v.015Zm7.38,6.948a.863.863,0,0,1-.865.865H15.145a.863.863,0,0,1-.865-.865V11.948a.863.863,0,0,1,.865-.865h7.813a.863.863,0,0,1,.865.865Zm-3.906-3.474a.869.869,0,0,1-.432.757h0v1.42a.432.432,0,1,1-.865,0v-1.42h0a.87.87,0,0,1,.432-1.621A.844.844,0,0,1,19.916,13.693Z" transform="translate(-13.4 -5)"/>
</svg>
