<svg xmlns="http://www.w3.org/2000/svg" width="29.511" height="19.674" viewBox="0 0 29.511 19.674">
  <path id="edição_digital" d="M28.281,4.5H4.509a1.23,1.23,0,0,0-1.23,1.23v.41H1.23A1.23,1.23,0,0,0,0,7.369V21.3a2.869,2.869,0,0,0,2.869,2.869H27.052a2.459,2.459,0,0,0,2.459-2.459V5.73A1.23,1.23,0,0,0,28.281,4.5ZM2.869,21.715a.41.41,0,0,1-.41-.41V8.6h.82V21.3A.41.41,0,0,1,2.869,21.715Zm12.091-.82H7.173a.615.615,0,0,1-.615-.615v-.41a.615.615,0,0,1,.615-.615H14.96a.615.615,0,0,1,.615.615v.41A.615.615,0,0,1,14.96,20.895Zm10.657,0H17.829a.615.615,0,0,1-.615-.615v-.41a.615.615,0,0,1,.615-.615h7.788a.615.615,0,0,1,.615.615v.41A.615.615,0,0,1,25.617,20.895ZM14.96,15.976H7.173a.615.615,0,0,1-.615-.615v-.41a.615.615,0,0,1,.615-.615H14.96a.615.615,0,0,1,.615.615v.41A.615.615,0,0,1,14.96,15.976Zm10.657,0H17.829a.615.615,0,0,1-.615-.615v-.41a.615.615,0,0,1,.615-.615h7.788a.615.615,0,0,1,.615.615v.41A.615.615,0,0,1,25.617,15.976Zm0-4.918H7.173a.615.615,0,0,1-.615-.615V8.394a.615.615,0,0,1,.615-.615H25.617a.615.615,0,0,1,.615.615v2.049A.615.615,0,0,1,25.617,11.058Z" transform="translate(0 -4.5)" fill="#222"/>
</svg>
