<svg xmlns="http://www.w3.org/2000/svg" width="14.842" height="10.019" viewBox="0 0 14.842 10.019">
  <path id="email" d="M.072,13.2V4.955q0-.014.043-.272L4.967,8.834.129,13.486A1.213,1.213,0,0,1,.072,13.2ZM.716,4.111a.617.617,0,0,1,.243-.043H14.027a.81.81,0,0,1,.258.043L9.418,8.276l-.644.515L7.5,9.836,6.226,8.791l-.644-.515ZM.73,14.044l4.881-4.68L7.5,10.895,9.389,9.364l4.881,4.68a.687.687,0,0,1-.243.043H.959A.648.648,0,0,1,.73,14.044Zm9.3-5.21,4.838-4.151a.854.854,0,0,1,.043.272V13.2a1.1,1.1,0,0,1-.043.286Z" transform="translate(-0.072 -4.068)" fill="#222"/>
</svg>
