<svg xmlns="http://www.w3.org/2000/svg" width="297.357" height="42.505" viewBox="0 0 297.357 42.505">
  <g id="folha_de_londrina_logo" transform="translate(15224.656 569.235)">
    <path id="Caminho_1437" data-name="Caminho 1437" d="M665.271,506.278h7.589V502.71H660.27v21.125h5v-8.382h5.4v-3.568h-5.4Z" transform="translate(-15821.172 -1061.259)" fill="#fff"/>
    <path id="Caminho_1438" data-name="Caminho 1438" d="M710.576,518.3a8.062,8.062,0,0,0-4.219,1.068,7.056,7.056,0,0,0-2.743,3,10.073,10.073,0,0,0-.961,4.534,8.952,8.952,0,0,0,2.117,6.353,7.556,7.556,0,0,0,5.806,2.267,8.064,8.064,0,0,0,4.222-1.068,7.084,7.084,0,0,0,2.743-3,10.074,10.074,0,0,0,.961-4.534,9,9,0,0,0-2.1-6.353A7.537,7.537,0,0,0,710.576,518.3Zm2.2,12.451a2.59,2.59,0,0,1-4.4.017,7.892,7.892,0,0,1-.717-3.871,7.734,7.734,0,0,1,.731-3.825,2.59,2.59,0,0,1,4.4-.017,7.892,7.892,0,0,1,.717,3.871A7.528,7.528,0,0,1,712.772,530.755Z" transform="translate(-15851.544 -1072.432)" fill="#fff"/>
    <path id="Caminho_1439" data-name="Caminho 1439" d="M804.749,502.05a5.588,5.588,0,0,0-2.528.567,7.193,7.193,0,0,0-2.134,1.7v-8.668l-4.817-.028v23.134h4.817v-11.1q1.337-2.069,2.8-2.071a1.391,1.391,0,0,1,1.133.473,2.707,2.707,0,0,1,.4,1.7v11h4.817V506.926a5.083,5.083,0,0,0-1.19-3.6A4.281,4.281,0,0,0,804.749,502.05Z" transform="translate(-15917.918 -1056.178)" fill="#fff"/>
    <path id="Caminho_1440" data-name="Caminho 1440" d="M941.47,503.574a5.208,5.208,0,0,0-3.84-1.525,5.733,5.733,0,0,0-3.46,1.1,7.084,7.084,0,0,0-2.332,3.049,11.308,11.308,0,0,0-.822,4.421,11.17,11.17,0,0,0,1.57,6.339,5.191,5.191,0,0,0,4.588,2.318,5.367,5.367,0,0,0,4.6-2.409l.244,1.89h4.267V495.62H941.47Zm0,10.331a3.272,3.272,0,0,1-2.8,1.831A2.173,2.173,0,0,1,936.7,514.6a8.2,8.2,0,0,1-.686-3.967,7.34,7.34,0,0,1,.791-3.842,2.426,2.426,0,0,1,2.134-1.25,2.709,2.709,0,0,1,1.357.337,4.3,4.3,0,0,1,1.173,1.034Z" transform="translate(-16015.197 -1056.178)" fill="#fff"/>
    <path id="Caminho_1441" data-name="Caminho 1441" d="M999.883,518.3a6.979,6.979,0,0,0-6.676,4.25,10.692,10.692,0,0,0-.881,4.446,8.9,8.9,0,0,0,2.1,6.217,7.746,7.746,0,0,0,6.036,2.318,9.918,9.918,0,0,0,6.31-2.267l-1.983-2.684a9.7,9.7,0,0,1-1.984,1.082,5.259,5.259,0,0,1-1.89.351,3.689,3.689,0,0,1-2.531-.825,4.436,4.436,0,0,1-1.156-2.865h10.02a14.526,14.526,0,0,0,.091-1.737,8.759,8.759,0,0,0-1.984-6.1A7.008,7.008,0,0,0,999.883,518.3Zm2.743,7.132h-5.384a5.766,5.766,0,0,1,.85-3.018,2.281,2.281,0,0,1,1.938-.912q2.55,0,2.621,3.718Z" transform="translate(-16059.134 -1072.427)" fill="#fff"/>
    <path id="Caminho_1442" data-name="Caminho 1442" d="M1080.369,502.71h-5v21.125h12.709l.519-3.964h-8.229Z" transform="translate(-16118.647 -1061.259)" fill="#fff"/>
    <path id="Caminho_1443" data-name="Caminho 1443" d="M1129.539,518.3a8.065,8.065,0,0,0-4.222,1.068,7.084,7.084,0,0,0-2.743,3,10.072,10.072,0,0,0-.961,4.534,8.945,8.945,0,0,0,2.12,6.353,7.562,7.562,0,0,0,5.806,2.267,8.062,8.062,0,0,0,4.219-1.068,7.085,7.085,0,0,0,2.746-3,10.112,10.112,0,0,0,.958-4.534,9,9,0,0,0-2.1-6.353A7.533,7.533,0,0,0,1129.539,518.3Zm2.193,12.451a2.59,2.59,0,0,1-4.4.017,7.893,7.893,0,0,1-.717-3.871,7.735,7.735,0,0,1,.731-3.825,2.593,2.593,0,0,1,4.406-.017,7.965,7.965,0,0,1,.714,3.871A7.733,7.733,0,0,1,1131.732,530.754Z" transform="translate(-16151.785 -1072.432)" fill="#fff"/>
    <path id="Caminho_1444" data-name="Caminho 1444" d="M1194.473,518.308a5.894,5.894,0,0,0-2.7.609,7.334,7.334,0,0,0-2.241,1.831l-.334-1.921H1185v16.186h4.817V523.962q1.343-2.105,2.805-2.1a1.383,1.383,0,0,1,1.133.473,2.785,2.785,0,0,1,.383,1.7v11h4.817v-11.85a5.09,5.09,0,0,0-1.187-3.6A4.271,4.271,0,0,0,1194.473,518.308Z" transform="translate(-16197.212 -1072.437)" fill="#fff"/>
    <path id="Caminho_1445" data-name="Caminho 1445" d="M1252.112,503.574a5.22,5.22,0,0,0-3.843-1.524,5.724,5.724,0,0,0-3.457,1.1,7.054,7.054,0,0,0-2.332,3.049,13.017,13.017,0,0,0,.745,10.759,5.191,5.191,0,0,0,4.588,2.318,5.361,5.361,0,0,0,4.6-2.409l.244,1.89h4.267V495.62h-4.817Zm0,10.331a3.274,3.274,0,0,1-2.805,1.831,2.179,2.179,0,0,1-1.967-1.133,8.2,8.2,0,0,1-.686-3.967,7.317,7.317,0,0,1,.793-3.842,2.42,2.42,0,0,1,2.134-1.25,2.718,2.718,0,0,1,1.357.337,4.339,4.339,0,0,1,1.173,1.034Z" transform="translate(-16237.813 -1056.178)" fill="#fff"/>
    <path id="Caminho_1446" data-name="Caminho 1446" d="M1312.465,519.5a5.756,5.756,0,0,0-1.663,2.638l-.394-3.14H1306.2v16.186h4.817v-8.008a7.635,7.635,0,0,1,1.173-2.972,2.55,2.55,0,0,1,2.171-.995,6.853,6.853,0,0,1,1.462.215l.762-4.664a5.775,5.775,0,0,0-1.615-.213A3.749,3.749,0,0,0,1312.465,519.5Z" transform="translate(-16284.068 -1072.61)" fill="#fff"/>
    <rect id="Retângulo_4054" data-name="Retângulo 4054" width="4.817" height="16.186" transform="translate(-14966.409 -553.61)" fill="#fff"/>
    <path id="Caminho_1447" data-name="Caminho 1447" d="M1347.837,495.615a2.785,2.785,0,0,0-2.04.776,2.834,2.834,0,0,0,0,3.93,2.786,2.786,0,0,0,2.04.785,2.856,2.856,0,0,0,2.06-.779,2.794,2.794,0,0,0,0-3.93,2.853,2.853,0,0,0-2.06-.782Z" transform="translate(-16311.877 -1056.173)" fill="#fff"/>
    <path id="Caminho_1448" data-name="Caminho 1448" d="M1383.769,518.308a5.9,5.9,0,0,0-2.7.609,7.29,7.29,0,0,0-2.239,1.831l-.337-1.921h-4.205v16.186h4.817V523.962q1.343-2.105,2.805-2.1a1.38,1.38,0,0,1,1.133.473,2.785,2.785,0,0,1,.383,1.7v11h4.817v-11.85a5.091,5.091,0,0,0-1.187-3.6A4.264,4.264,0,0,0,1383.769,518.308Z" transform="translate(-16332.864 -1072.437)" fill="#fff"/>
    <path id="Caminho_1449" data-name="Caminho 1449" d="M864.781,531.2a3.968,3.968,0,0,1-.1-.791V524.04a5.441,5.441,0,0,0-1.615-4.3q-1.615-1.431-5.1-1.434a15.867,15.867,0,0,0-2.972.306,18.706,18.706,0,0,0-3.117.884l1.1,3.168a20.073,20.073,0,0,1,2.318-.623,9.865,9.865,0,0,1,1.921-.229,3.282,3.282,0,0,1,2.134.533,2.526,2.526,0,0,1,.609,1.967v.708h-1.646a9.61,9.61,0,0,0-5.639,1.4,4.671,4.671,0,0,0-1.952,4.055,4.867,4.867,0,0,0,1.434,3.658,5.365,5.365,0,0,0,3.84,1.417,5.463,5.463,0,0,0,4.557-2,3.664,3.664,0,0,0,.567.793,4.377,4.377,0,0,0,3.276,1.2,4.3,4.3,0,0,0,1.881-.55v-3.281h-.691A.819.819,0,0,1,864.781,531.2Zm-7.367.89a1.814,1.814,0,0,1-1.386-.533,2.45,2.45,0,0,1,.3-3.307,4.252,4.252,0,0,1,2.454-.567h1.19v2.868a2.853,2.853,0,0,1-2.564,1.539Z" transform="translate(-15957.655 -1072.439)" fill="#fff"/>
    <path id="Caminho_1450" data-name="Caminho 1450" d="M1444.657,531.722a.822.822,0,0,1-.83-.524,3.931,3.931,0,0,1-.082-.8V524.04a5.441,5.441,0,0,0-1.615-4.3q-1.615-1.431-5.1-1.434a15.924,15.924,0,0,0-2.973.306,18.672,18.672,0,0,0-3.117.884l1.1,3.168a19.93,19.93,0,0,1,2.318-.623,9.866,9.866,0,0,1,1.918-.229,3.275,3.275,0,0,1,2.134.533,2.538,2.538,0,0,1,.609,1.967v.708h-1.644a9.61,9.61,0,0,0-5.639,1.4,4.671,4.671,0,0,0-1.952,4.055,4.866,4.866,0,0,0,1.434,3.658,5.365,5.365,0,0,0,3.84,1.417,5.468,5.468,0,0,0,4.557-2,3.66,3.66,0,0,0,.567.793,4.377,4.377,0,0,0,3.276,1.2,4.285,4.285,0,0,0,1.879-.55v-3.281Zm-8.2.366a1.825,1.825,0,0,1-1.389-.533,2.117,2.117,0,0,1-.5-1.51,2.09,2.09,0,0,1,.808-1.8,4.252,4.252,0,0,1,2.454-.567h1.187v2.868A2.844,2.844,0,0,1,1436.459,532.087Z" transform="translate(-16372.63 -1072.439)" fill="#fff"/>
    <path id="Caminho_1451" data-name="Caminho 1451" d="M771.112,515.461q-.825,0-.825-1.006V495.62H765.47v19.019a4.712,4.712,0,0,0,1.173,3.429,4.362,4.362,0,0,0,3.276,1.2,7.526,7.526,0,0,0,2.927-.55v-3.262h-1.737Z" transform="translate(-15896.563 -1056.178)" fill="#fff"/>
    <path id="Caminho_1452" data-name="Caminho 1452" d="M470.924,465H442.14a6.86,6.86,0,0,0-6.86,6.86v28.787a6.857,6.857,0,0,0,6.86,6.857h28.784a6.857,6.857,0,0,0,6.86-6.857V471.86A6.86,6.86,0,0,0,470.924,465Zm-23.256,28.436V479.168l5.313,3.539v14.168Zm7.084,3.443v-6.2l10.621-7.084v6.2Zm0-8.328v-5.837l10.621-7.084v5.837Z" transform="translate(-15659.937 -1034.235)" fill="#fff"/>
  </g>
</svg>
