<svg xmlns="http://www.w3.org/2000/svg" width="15.428" height="15.425" viewBox="0 0 15.428 15.425">
  <path id="instagram" d="M7.711,6A3.955,3.955,0,1,0,11.666,9.95,3.949,3.949,0,0,0,7.711,6Zm0,6.526A2.571,2.571,0,1,1,10.282,9.95a2.576,2.576,0,0,1-2.571,2.571ZM12.75,5.834a.922.922,0,1,1-.922-.922A.92.92,0,0,1,12.75,5.834Zm2.619.936a4.565,4.565,0,0,0-1.246-3.232,4.6,4.6,0,0,0-3.232-1.246c-1.274-.072-5.091-.072-6.364,0A4.588,4.588,0,0,0,1.295,3.534,4.58,4.58,0,0,0,.049,6.766c-.072,1.274-.072,5.091,0,6.364a4.565,4.565,0,0,0,1.246,3.232,4.6,4.6,0,0,0,3.232,1.246c1.274.072,5.091.072,6.364,0a4.565,4.565,0,0,0,3.232-1.246,4.6,4.6,0,0,0,1.246-3.232c.072-1.274.072-5.087,0-6.361ZM13.724,14.5a2.6,2.6,0,0,1-1.466,1.466,17,17,0,0,1-4.547.31,17.132,17.132,0,0,1-4.547-.31A2.6,2.6,0,0,1,1.7,14.5a17,17,0,0,1-.31-4.547A17.132,17.132,0,0,1,1.7,5.4,2.6,2.6,0,0,1,3.164,3.937a17,17,0,0,1,4.547-.31,17.132,17.132,0,0,1,4.547.31A2.6,2.6,0,0,1,13.724,5.4a17,17,0,0,1,.31,4.547A16.99,16.99,0,0,1,13.724,14.5Z" transform="translate(0.005 -2.238)" fill="#222"/>
</svg>
