<svg xmlns="http://www.w3.org/2000/svg" width="24.254" height="24.254" viewBox="0 0 24.254 24.254">
  <g id="login" transform="translate(-4 -4)">
    <path id="Caminho_13" data-name="Caminho 13" d="M16.127,4A12.127,12.127,0,1,1,4,16.127,12.1,12.1,0,0,1,16.127,4ZM7.29,21.956c1.692-2.35,3.666-4.606,6.675-2.914,1.692.94,2.82.846,4.606-.094,2.726-1.6,4.982.94,6.487,3.008a10.879,10.879,0,0,0,1.692-5.829,10.623,10.623,0,0,0-21.246,0A10.186,10.186,0,0,0,7.29,21.956ZM16.127,8.606a4.654,4.654,0,1,1-4.606,4.7A4.655,4.655,0,0,1,16.127,8.606Z" fill="#fff" fill-rule="evenodd"/>
  </g>
</svg>
