<svg xmlns="http://www.w3.org/2000/svg" width="152.625" height="88.211" viewBox="0 0 152.625 88.211">
  <g id="logo_grupo_folha" transform="translate(0 0.028)">
    <g id="Camada_1" data-name="Camada 1" transform="translate(0 -0.028)">
      <path id="Caminho_264" data-name="Caminho 264" d="M88.922,22.874a7.973,7.973,0,0,0-.513,1.058c-1.157,2.938.835,9.507,5.567,10.107a6.257,6.257,0,0,0-.464.934c-.9,2.276.872,7.515,4.892,7.317,0,0-7.589-3.934,3.055-7.719a38.029,38.029,0,0,1,7.354-1.082c5.69-.439,11.517-.464,11.665-.476a2.592,2.592,0,0,0,2.561-2.567,2.364,2.364,0,0,0-2.629-2.258c-.173,0-5.95,0-11.752.414a45.387,45.387,0,0,0-8.22,1.15,15.791,15.791,0,0,0-3.928,1.726,8.3,8.3,0,0,0-2.258,2.159c-2.047-1.379-7.1-5.944,4.88-10.137a50.875,50.875,0,0,1,9.9-1.355c7.663-.495,15.518-.421,15.71-.433a3.381,3.381,0,0,0,3.427-3.451,3.3,3.3,0,0,0-3.556-3.123c-.235,0-7.991-.124-15.8.322A59.562,59.562,0,0,0,97.68,16.887a20.412,20.412,0,0,0-5.245,2.276,11.134,11.134,0,0,0-2.827,2.622c-2.622-2.474-5.294-7.379,7.373-11.7,2.771-.847,7.589-1.237,12.265-1.509,9.469-.47,19.174-.216,19.409-.223A4.126,4.126,0,0,0,132.842,4.1a4.184,4.184,0,0,0-4.41-3.989c-.291,0-9.841-.34-19.458.037A70.3,70.3,0,0,0,95.286,1.7,24.407,24.407,0,0,0,88.742,4.5a13.131,13.131,0,0,0-5,5.913C82.409,13.751,84.227,20.864,88.922,22.874Z" transform="translate(-31.783 0.028)" fill="#fff"/>
      <path id="Caminho_265" data-name="Caminho 265" d="M61.608,82.9a2.418,2.418,0,0,0-.693,1.738v9.9a2.987,2.987,0,0,1-1.045,2.542,3.81,3.81,0,0,1-2.344.8,3.662,3.662,0,0,1-2.295-.8,3.043,3.043,0,0,1-1.014-2.542V82.16h-5.1V93.485c0,3.328.86,5.567,2.573,6.6a11.7,11.7,0,0,0,5.684,1.769,11.22,11.22,0,0,0,5.894-1.614q2.678-1.6,2.678-6.742V82.172H63.383A2.326,2.326,0,0,0,61.608,82.9Z" transform="translate(-18.739 -31.326)" fill="#fff"/>
      <path id="Caminho_266" data-name="Caminho 266" d="M15.172,83.425A11.863,11.863,0,0,0,8.709,81.57q-4.571-.031-6.643,2.74A11.869,11.869,0,0,0,0,91.614,11,11,0,0,0,1.559,97.8,8.152,8.152,0,0,0,5.3,101.01a7.249,7.249,0,0,0,4.391.365,5.566,5.566,0,0,0,3.519-2.53v1.237a5.864,5.864,0,0,1-1.126,3.476,3.934,3.934,0,0,1-2.19,1.423A3.767,3.767,0,0,1,7.5,104.69a3.767,3.767,0,0,1-1.775-1.559H.458q1.59,6.235,8.257,6.235a12.03,12.03,0,0,0,6.457-1.856q2.975-1.855,2.975-6.921V90.384Q18.147,85.312,15.172,83.425ZM13.057,93.451a5.492,5.492,0,0,1-.946,2.474c-.915,1.237-2.344,1.7-4.274,1.336s-2.888-2.177-2.888-5.53A9.408,9.408,0,0,1,5.82,87.6a3.341,3.341,0,0,1,3.334-1.812,3.179,3.179,0,0,1,2.752,1.305A6.686,6.686,0,0,1,13.1,90.062a10.453,10.453,0,0,1-.043,3.389Z" transform="translate(0 -31.101)" fill="#fff"/>
      <path id="Caminho_267" data-name="Caminho 267" d="M120.189,82.066a11.17,11.17,0,0,0-5.369-.47,7.54,7.54,0,0,0-4.855,2.573,8.041,8.041,0,0,0-1.7,3.26,14.473,14.473,0,0,0-.544,3.915,16.149,16.149,0,0,0,.619,4.6,7.2,7.2,0,0,0,2.177,3.526,8.535,8.535,0,0,0,3.878,1.856,9.9,9.9,0,0,0,4.818-.111,7.28,7.28,0,0,0,4.422-2.963,10.23,10.23,0,0,0,1.305-2.839,13.607,13.607,0,0,0,.507-3.977,11.987,11.987,0,0,0-1.237-5.567A7.422,7.422,0,0,0,120.189,82.066ZM119.6,95.673a3.767,3.767,0,0,1-2,1.633,3.544,3.544,0,0,1-2.208-.074,3.291,3.291,0,0,1-1.522-.977c-.724-.878-1.138-2.406-1.237-4.6A6.612,6.612,0,0,1,114.01,86.7a3.909,3.909,0,0,1,1.6-.835,3.538,3.538,0,0,1,2.177.037,3.767,3.767,0,0,1,1.917,1.67,7.341,7.341,0,0,1,.835,3.915,8.159,8.159,0,0,1-.934,4.2Z" transform="translate(-41.093 -31.059)" fill="#fff"/>
      <path id="Caminho_268" data-name="Caminho 268" d="M93.607,98.845a11.726,11.726,0,0,0,2.177-7.4A11.551,11.551,0,0,0,93.613,84.2a6.865,6.865,0,0,0-2.938-2,10.434,10.434,0,0,0-3.655-.687,11.993,11.993,0,0,0-6.451,1.856Q77.6,85.231,77.6,90.29v18.023h2.474a2.387,2.387,0,0,0,1.744-.724,2.363,2.363,0,0,0,.724-1.732V98.7a5.437,5.437,0,0,0,2.319,2.245,7.36,7.36,0,0,0,3.185.619,6.8,6.8,0,0,0,5.56-2.715Zm-3.921-3.037a3.464,3.464,0,0,1-2.963,1.522,3.606,3.606,0,0,1-3.093-1.522,6.646,6.646,0,0,1-1.082-4.138,7.431,7.431,0,0,1,1.014-4.361,3.5,3.5,0,0,1,3.031-1.522,3.594,3.594,0,0,1,3.093,1.522,7.47,7.47,0,0,1,1.082,4.361A7.026,7.026,0,0,1,89.686,95.808Z" transform="translate(-29.603 -31.082)" fill="#fff"/>
      <path id="Caminho_269" data-name="Caminho 269" d="M40.87,82.18a14.227,14.227,0,0,0-3.791.507,9.08,9.08,0,0,0-3.229,1.6,7.818,7.818,0,0,0-2.289,3.093,11.925,11.925,0,0,0-.835,4.75v9.352h5.084V91.544a4.372,4.372,0,0,1,1.014-3.192,4.249,4.249,0,0,1,3.093-1.014h1.664V82.18Z" transform="translate(-11.72 -31.334)" fill="#fff"/>
      <path id="Caminho_270" data-name="Caminho 270" d="M234.541,82.9q-2.029-1.379-6.092-1.379a8.311,8.311,0,0,0-5.567,1.67,5.566,5.566,0,0,0-2.029,3.711H225.7a1.985,1.985,0,0,1,1.157-1.113,5.177,5.177,0,0,1,1.812-.3,7.478,7.478,0,0,1,2.066.328,1.373,1.373,0,0,1,1.15,1.416c0,.965-1.064,1.6-3.192,1.856a11.505,11.505,0,0,0-1.163.186,4.138,4.138,0,0,1-.872.105,10.218,10.218,0,0,0-4.534,1.744,5.019,5.019,0,0,0-1.781,4.33c0,2.177.656,3.711,1.961,4.67a7.57,7.57,0,0,0,4.571,1.416,29.778,29.778,0,0,0,3.012-.179,8.981,8.981,0,0,0,3.229-.983,6.494,6.494,0,0,0,2.5-2.35,8.313,8.313,0,0,0,1.051-4.528V86.957a4.645,4.645,0,0,0-2.128-4.057Zm-2.61,10.453a4.014,4.014,0,0,1-4.361,4.33,2.734,2.734,0,0,1-1.886-.575,2.332,2.332,0,0,1-.656-1.738,2.938,2.938,0,0,1,.507-1.6,4.329,4.329,0,0,1,1.893-.94l1.67-.365a13.676,13.676,0,0,0,2.833-.94Z" transform="translate(-84.057 -31.082)" fill="#fff"/>
      <path id="Caminho_271" data-name="Caminho 271" d="M186.053,75.454a2.264,2.264,0,0,0-.724-1.707,2.474,2.474,0,0,0-1.744-.687H181V97.992h5.084Z" transform="translate(-69.049 -27.854)" fill="#fff"/>
      <path id="Caminho_272" data-name="Caminho 272" d="M167.13,85.839a7.422,7.422,0,0,0-4.057-3.773,11.133,11.133,0,0,0-5.362-.47,7.521,7.521,0,0,0-4.855,2.573,8.041,8.041,0,0,0-1.7,3.26,14.474,14.474,0,0,0-.544,3.915,16.151,16.151,0,0,0,.619,4.6,7.2,7.2,0,0,0,2.177,3.526,8.536,8.536,0,0,0,3.878,1.856,9.9,9.9,0,0,0,4.812-.111,7.28,7.28,0,0,0,4.422-2.963,10.23,10.23,0,0,0,1.305-2.839,13.607,13.607,0,0,0,.507-3.977,11.987,11.987,0,0,0-1.2-5.591Zm-4.645,9.853a3.742,3.742,0,0,1-2,1.633,3.525,3.525,0,0,1-2.214-.068,3.346,3.346,0,0,1-1.528-.977c-.724-.878-1.138-2.406-1.237-4.6a6.585,6.585,0,0,1,1.373-4.948,3.866,3.866,0,0,1,1.6-.835,3.519,3.519,0,0,1,2.171.037,3.767,3.767,0,0,1,1.917,1.67,7.341,7.341,0,0,1,.835,3.915,7.961,7.961,0,0,1-.915,4.175Z" transform="translate(-57.455 -31.059)" fill="#fff"/>
      <path id="Caminho_273" data-name="Caminho 273" d="M195.474,88.067a6.519,6.519,0,0,1,1.089-3.989,3.674,3.674,0,0,1,3.124-1.447,3.47,3.47,0,0,1,2.975,1.522,5.042,5.042,0,0,1,.835,1.856A10.411,10.411,0,0,1,203.676,88v10h4.862V86.756a8.712,8.712,0,0,0-1.379-5.22,8.14,8.14,0,0,0-3.408-2.752,7.373,7.373,0,0,0-4.571-.291,5.771,5.771,0,0,0-3.711,2.752V75.524a2.474,2.474,0,0,0-2.474-2.474H190.52V97.982h4.948Z" transform="translate(-72.681 -27.851)" fill="#fff"/>
      <path id="Caminho_274" data-name="Caminho 274" d="M142.657,83.4h.724a2.418,2.418,0,0,0,2.394-2.474V79.842h-3.093v-1.3a1.478,1.478,0,0,1,.365-1.175,2.715,2.715,0,0,1,1.447-.291H145.8V73.088a7.775,7.775,0,0,0-1.237-.074,7.248,7.248,0,0,0-1.163-.074c-1.985,0-3.408.408-4.28,1.237a5.269,5.269,0,0,0-1.379,3.915v19.86h4.948Z" transform="translate(-52.546 -27.808)" fill="#fff"/>
      <path id="Caminho_275" data-name="Caminho 275" d="M104.233,119.61H102.9v4.62a3.352,3.352,0,0,0-3.049-1.682c-2.851.1-4.268,1.992-4.268,5.684s1.658,5.443,4.948,5.5,5.01-1.6,5.01-4.868v-7.886A1.367,1.367,0,0,0,104.233,119.61ZM100.6,131.417c-1.54,0-2.264-1.113-2.245-3.309.08-2.091.829-3.093,2.282-3.093s2.2,1.027,2.264,3.093C102.9,130.3,102.13,131.417,100.6,131.417Z" transform="translate(-36.463 -45.613)" fill="#fff"/>
      <path id="Caminho_276" data-name="Caminho 276" d="M118.442,124.36c-3.253,0-4.892,1.856-4.892,5.567s1.621,5.6,4.849,5.709a4.327,4.327,0,0,0,4.67-3.575H121.09a1.15,1.15,0,0,0-.909.4,2.474,2.474,0,0,1-1.738.779c-1.311,0-2.023-.841-2.122-2.474h6.915Q123.533,124.354,118.442,124.36Zm-2.084,4.41c.2-1.435.891-2.171,2.041-2.171s1.856.736,1.985,2.171Z" transform="translate(-43.318 -47.425)" fill="#fff"/>
      <path id="Caminho_277" data-name="Caminho 277" d="M139.138,119.61h-1.4v13.96h2.691V120.946A1.336,1.336,0,0,0,139.138,119.61Z" transform="translate(-52.546 -45.613)" fill="#fff"/>
      <path id="Caminho_278" data-name="Caminho 278" d="M149.279,124.36c-3.235,0-4.849,1.856-4.849,5.647s1.614,5.622,4.849,5.622,4.874-1.886,4.874-5.622S152.514,124.36,149.279,124.36Zm0,8.826c-1.373,0-2.084-1.07-2.1-3.179s.705-3.247,2.122-3.247,2.06,1.045,2.06,3.161-.724,3.266-2.1,3.266Z" transform="translate(-55.098 -47.425)" fill="#fff"/>
      <path id="Caminho_279" data-name="Caminho 279" d="M166.819,124.36c-3.049,0-4.589,1.54-4.589,4.639v6.383h2.734v-6.915c0-1.126.618-1.682,1.818-1.682a1.6,1.6,0,0,1,1.856,1.682v5.567c0,.866.445,1.293,1.336,1.355h1.392V129C171.365,125.9,169.875,124.36,166.819,124.36Z" transform="translate(-61.889 -47.425)" fill="#fff"/>
      <path id="Caminho_280" data-name="Caminho 280" d="M187.387,119.61h-1.33v4.62A3.359,3.359,0,0,0,183,122.548c-2.851.1-4.262,1.992-4.262,5.684s1.651,5.443,4.948,5.5,5.016-1.6,5.016-4.868v-7.886A1.373,1.373,0,0,0,187.387,119.61Zm-3.637,11.807c-1.534,0-2.264-1.113-2.245-3.309.08-2.091.829-3.093,2.288-3.093s2.2,1.027,2.264,3.093C186.057,130.3,185.284,131.417,183.75,131.417Z" transform="translate(-68.187 -45.613)" fill="#fff"/>
      <path id="Caminho_281" data-name="Caminho 281" d="M196.84,129.877v5.6h2.728v-5.647c0-1.577.748-2.381,2.245-2.381h.909V124.62h-.39C198.757,124.62,196.939,126.364,196.84,129.877Z" transform="translate(-75.092 -47.524)" fill="#fff"/>
      <path id="Caminho_282" data-name="Caminho 282" d="M210.41,124.614H209v10.861h2.691v-9.544a1.15,1.15,0,0,0-1.28-1.317Z" transform="translate(-79.731 -47.518)" fill="#fff"/>
      <path id="Caminho_283" data-name="Caminho 283" d="M210.41,119.6H209v2.134h2.691v-.8a1.15,1.15,0,0,0-1.28-1.336Z" transform="translate(-79.731 -45.607)" fill="#fff"/>
      <path id="Caminho_284" data-name="Caminho 284" d="M220.409,124.36c-3.055,0-4.589,1.54-4.589,4.639v6.383h2.728v-6.915c0-1.126.619-1.682,1.818-1.682a1.6,1.6,0,0,1,1.856,1.682v5.567c0,.866.445,1.293,1.336,1.355h1.373V129C224.955,125.9,223.459,124.36,220.409,124.36Z" transform="translate(-82.333 -47.425)" fill="#fff"/>
      <path id="Caminho_285" data-name="Caminho 285" d="M236.633,124.36c-2.474,0-3.86.983-4.181,2.994h2.691c.142-.513.668-.755,1.621-.755,1.107,0,1.676.3,1.738.922s-.588.946-1.738,1.089c-2.709.266-4.571.965-4.633,3.569,0,2.406,1.781,3.618,4.33,3.408,2.888-.2,4.67-1.534,4.67-4.534v-3.711C241.08,125.374,239.583,124.36,236.633,124.36Zm1.9,6.581a2.227,2.227,0,0,1-2.406,2.474,1.237,1.237,0,0,1-1.355-1.274c0-.8.55-1.311,1.62-1.515a11.75,11.75,0,0,0,2.14-.662Z" transform="translate(-88.555 -47.425)" fill="#fff"/>
    </g>
  </g>
</svg>
