<svg id="mobile" xmlns="http://www.w3.org/2000/svg" width="14.409" height="26.866" viewBox="0 0 14.409 26.866">
  <path id="Caminho_9" data-name="Caminho 9" d="M38.1,5.03H28.408A2.359,2.359,0,0,0,26.05,7.388v22.15A2.359,2.359,0,0,0,28.408,31.9H38.1a2.359,2.359,0,0,0,2.358-2.358V7.388A2.361,2.361,0,0,0,38.1,5.03Zm-11.368,24.2V8.642H39.776V29.231ZM34.707,7.06a.187.187,0,0,1-.054.131.185.185,0,0,1-.131.054H31.987a.186.186,0,0,1-.131-.316h0a.185.185,0,0,1,.131-.054h2.534A.182.182,0,0,1,34.707,7.06Z" transform="translate(-26.05 -5.03)" fill="#222"/>
</svg>
