<svg xmlns="http://www.w3.org/2000/svg" width="30.788" height="23.893" viewBox="0 0 30.788 23.893">
  <g id="podcast" transform="translate(-1.503 -5.274)">
    <path id="Caminho_262" data-name="Caminho 262" d="M20.559,17.779A2.779,2.779,0,1,1,17.779,15,2.779,2.779,0,0,1,20.559,17.779Z" transform="translate(-0.882 -0.559)" fill="none" stroke="#222" stroke-linecap="round" stroke-linejoin="round" stroke-width="3"/>
    <path id="Caminho_263" data-name="Caminho 263" d="M22.79,11.328a8.338,8.338,0,0,1,0,11.8M11,23.113a8.338,8.338,0,0,1,0-11.8M26.723,7.4a13.9,13.9,0,0,1,0,19.651m-19.651,0a13.9,13.9,0,0,1,0-19.651" transform="translate(0 0)" fill="none" stroke="#222" stroke-linecap="round" stroke-linejoin="round" stroke-width="3"/>
  </g>
</svg>
