<svg id="posts_instagram" xmlns="http://www.w3.org/2000/svg" width="34.216" height="34.216" viewBox="0 0 34.216 34.216">
  <path id="Caminho_11" data-name="Caminho 11" d="M28.513,0H5.7A5.7,5.7,0,0,0,0,5.7V28.513a5.7,5.7,0,0,0,5.7,5.7H28.513a5.7,5.7,0,0,0,5.7-5.7V5.7A5.7,5.7,0,0,0,28.513,0Zm2.851,28.513a2.851,2.851,0,0,1-2.851,2.851H5.7a2.851,2.851,0,0,1-2.851-2.851V5.7A2.851,2.851,0,0,1,5.7,2.851H28.513A2.851,2.851,0,0,1,31.365,5.7Z"/>
  <path id="Caminho_12" data-name="Caminho 12" d="M14.554,6a8.554,8.554,0,1,0,8.554,8.554A8.554,8.554,0,0,0,14.554,6Zm0,14.257a5.7,5.7,0,1,1,5.7-5.7A5.7,5.7,0,0,1,14.554,20.257Z" transform="translate(2.554 2.554)"/>
  <ellipse id="Elipse_1" data-name="Elipse 1" cx="2.5" cy="2" rx="2.5" ry="2" transform="translate(24 6)"/>
</svg>
