<svg xmlns="http://www.w3.org/2000/svg" width="17.8" height="17.8" viewBox="0 0 17.8 17.8">
  <g id="previsão" transform="translate(-2 -2)">
    <path id="Caminho_6" data-name="Caminho 6" d="M10.9,7.086A3.814,3.814,0,1,0,14.714,10.9,3.814,3.814,0,0,0,10.9,7.086Zm0,6.357A2.543,2.543,0,1,1,13.443,10.9,2.543,2.543,0,0,1,10.9,13.443Zm-.636-8.264V2.636a.636.636,0,0,1,1.271,0V5.179a.636.636,0,1,1-1.271,0Zm1.271,11.443v2.543a.636.636,0,0,1-1.271,0V16.621a.636.636,0,0,1,1.271,0ZM19.8,10.9a.636.636,0,0,1-.636.636H16.621a.636.636,0,0,1,0-1.271h2.543A.636.636,0,0,1,19.8,10.9Zm-14.621.636H2.636a.636.636,0,0,1,0-1.271H5.179a.636.636,0,0,1,0,1.271Zm9.084-4a.636.636,0,0,1,0-.9L16.806,4.1a.636.636,0,0,1,.9.9L15.159,7.537A.636.636,0,0,1,14.263,7.537ZM4.091,4.994a.638.638,0,0,1,.9-.9L7.537,6.634a.636.636,0,1,1-.9.9Zm3.439,9.275a.636.636,0,0,1,0,.9L4.988,17.708a.636.636,0,0,1-.9-.9l2.543-2.543a.636.636,0,0,1,.9-.006ZM17.7,16.812a.636.636,0,1,1-.9.9l-2.543-2.543a.636.636,0,0,1,.9-.9Z"/>
  </g>
</svg>
