<svg id="tempo_de_leitura_p" xmlns="http://www.w3.org/2000/svg" width="13.37" height="13.37" viewBox="0 0 13.37 13.37">
  <path id="Caminho_1" data-name="Caminho 1" d="M15.485,9.153H11.168a.418.418,0,0,1-.418-.418V4.418a.418.418,0,1,1,.836,0v3.9h3.9a.418.418,0,0,1,0,.836Z" transform="translate(-4.761 -1.772)" fill="#222"/>
  <path id="Caminho_2" data-name="Caminho 2" d="M6.685,13.37A6.685,6.685,0,1,1,13.37,6.685,6.685,6.685,0,0,1,6.685,13.37Zm0-12.534a5.849,5.849,0,1,0,5.849,5.849A5.849,5.849,0,0,0,6.685.836Z" fill="#222"/>
</svg>
