<svg id="tempo_de_leitura_b" xmlns="http://www.w3.org/2000/svg" width="14.228" height="14.227" viewBox="0 0 14.228 14.227">
  <path id="Caminho_1" data-name="Caminho 1" d="M15.789,9.483H11.195a.445.445,0,0,1-.445-.445V4.445a.445.445,0,1,1,.889,0v4.15h4.15a.445.445,0,0,1,0,.889Z" transform="translate(-4.377 -1.629)" fill="#fff"/>
  <path id="Caminho_2" data-name="Caminho 2" d="M7.114,14.227a7.114,7.114,0,1,1,7.114-7.114,7.114,7.114,0,0,1-7.114,7.114Zm0-13.338a6.224,6.224,0,1,0,6.224,6.224A6.224,6.224,0,0,0,7.114.889Z" fill="#fff"/>
</svg>
