<svg xmlns="http://www.w3.org/2000/svg" width="14.682" height="11.924" viewBox="0 0 14.682 11.924">
  <path id="twitter" d="M13.173,6.353c.009.13.009.261.009.391a8.5,8.5,0,0,1-8.561,8.561A8.5,8.5,0,0,1,0,13.954a6.225,6.225,0,0,0,.727.037,6.026,6.026,0,0,0,3.736-1.286,3.014,3.014,0,0,1-2.813-2.087,3.8,3.8,0,0,0,.568.047,3.183,3.183,0,0,0,.792-.1A3.009,3.009,0,0,1,.6,7.61V7.573a3.03,3.03,0,0,0,1.36.382A3.014,3.014,0,0,1,1.025,3.93a8.553,8.553,0,0,0,6.2,3.149,3.4,3.4,0,0,1-.075-.689,3.012,3.012,0,0,1,5.208-2.059,5.924,5.924,0,0,0,1.91-.727,3,3,0,0,1-1.323,1.658A6.032,6.032,0,0,0,14.682,4.8a6.468,6.468,0,0,1-1.509,1.556Z" transform="translate(0 -3.381)" fill="#222"/>
</svg>
