<svg xmlns="http://www.w3.org/2000/svg" width="18.593" height="18.593" viewBox="0 0 18.593 18.593">
  <path id="whatsapp" d="M15.808,4.952A9.217,9.217,0,0,0,1.307,16.07L0,20.843l4.885-1.282a9.186,9.186,0,0,0,4.4,1.121h0a9.3,9.3,0,0,0,9.3-9.214,9.25,9.25,0,0,0-2.785-6.516ZM9.292,19.129a7.644,7.644,0,0,1-3.9-1.067L5.113,17.9l-2.9.759.772-2.826-.183-.291a7.673,7.673,0,1,1,14.231-4.071,7.744,7.744,0,0,1-7.744,7.661Zm4.2-5.736c-.228-.116-1.361-.672-1.573-.747s-.365-.116-.519.116-.593.747-.73.9-.27.174-.5.058a6.267,6.267,0,0,1-3.133-2.739c-.237-.407.237-.378.676-1.258a.427.427,0,0,0-.021-.4c-.058-.116-.519-1.249-.71-1.71s-.378-.386-.519-.394-.286-.008-.44-.008a.853.853,0,0,0-.614.286,2.587,2.587,0,0,0-.805,1.922A4.51,4.51,0,0,0,5.545,11.8a10.288,10.288,0,0,0,3.934,3.478,4.5,4.5,0,0,0,2.764.577,2.358,2.358,0,0,0,1.552-1.1,1.925,1.925,0,0,0,.133-1.1C13.874,13.564,13.721,13.506,13.492,13.393Z" transform="translate(0 -2.25)" fill="#222"/>
</svg>
